# xmcd CD database file
#
# Track frame offsets:
#	150
#	1489
#	23526
#	42567
#	59919
#	66303
#	90654
#	94221
#	110033
#	131021
#	149137
#	155449
#	180558
#	186475
#	203298
#	220206
#
# Disc length: 3772 seconds
#
# Revision: 3
# Processed by: cddbd v1.5.1PL0 Copyright (c) Steve Scherf et al.
# Submitted via: CDex 1.51
#
DISCID=f20eba10
DTITLE=Nakamura Kazuyoshi - 100s
DYEAR=2002
DGENRE=Blues
TTITLE0=Load chuu ...
TTITLE1=Canon Ball
TTITLE2=Good Day
TTITLE3=Itsudatte Sousa
TTITLE4=(Instrumental)
TTITLE5=Yes
TTITLE6=<DAS>in
TTITLE7=Rattatta
TTITLE8=Seven Star
TTITLE9=Snow King
TTITLE10=sui
TTITLE11=ZEN
TTITLE12=<DAS>out
TTITLE13=Mexico
TTITLE14=Shinsekai
TTITLE15=Hitotsudake
EXTD=YEAR: 2002
EXTT0=
EXTT1=
EXTT2=
EXTT3=
EXTT4=
EXTT5=
EXTT6=
EXTT7=
EXTT8=
EXTT9=
EXTT10=
EXTT11=
EXTT12=
EXTT13=
EXTT14=
EXTT15=
PLAYORDER=
